<?xml version="1.0" encoding="utf-8"?>
<!-- Generator: Adobe Illustrator 27.9.0, SVG Export Plug-In . SVG Version: 6.00 Build 0)  -->
<svg version="1.1" id="Layer_1" xmlns="http://www.w3.org/2000/svg" xmlns:xlink="http://www.w3.org/1999/xlink" x="0px" y="0px"
	 viewBox="0 0 666 543.1" style="enable-background:new 0 0 666 543.1;" xml:space="preserve">
<g id="Z5nQg8.tif">
	<path d="M519.8,13.1C562.1,53.7,564.3,80.2,538,145c-12.5,30.8-25,61.6-39.6,91.4c-9.4,19.3-7.9,30.3,9.9,45.6
		c43.8,37.9,85.8,78.1,125.5,120.3c36.1,38.5,38.7,85.5,23.5,140.8c-72.5-70.3-141.4-137.1-210.5-204
		c-85.3,100.9-93.4,104.7-156.5,75.2c-8.2,16.3-16.5,32.8-27.7,55c-13.7-22.8-22.6-41-34.6-56.9c-12-15.9-27-29.6-40.5-44.2
		c-32.4,40.9-60.5,80.3-93.2,115.7c-11.9,13-36.8,25.3-51.4,21.4c-14.6-3.9-29.5-26.7-34.4-44C-12,390.6,4.7,326.4,57.7,275.4
		c16.2-15.6,44.8-31.8,64.1-28.2c39.6,7.3,48.7-16.9,64.8-41.2c-78.8,8-111.9-9.3-125.8-59.2c24.1-18.2,47.3-33.6,68-51.9
		C157,70,187.1,51.1,226.3,51.2c34.4,0.2,60.1,16.1,76.6,45.2c15.7,27.6,12.4,54.9-4.6,82.1c-23.3,37.2-44.8,75.5-67.6,114.3
		c8.5,9.1,15.6,16.8,28.8,31.1C289.1,192.1,359.6,92.3,457.1,10.9C475.5-4.4,502.5-3.5,519.8,13.1L519.8,13.1z M437.6,211.9
		c12-32.8,27.8-76,45.9-125.7c-36.7,15.9-64,31-93.2,39.6c-47.6,13.9-84.8,58.6-85.2,103.9C346.2,224.2,388,218.6,437.6,211.9
		L437.6,211.9z M398.5,290.9c-16.9-7.1-28.1-13.1-40-16.6c-67.8-19.9-87.8-4.1-81,65.7c1.2,11.9,8.6,30.5,16.8,32.8
		c13,3.6,33.9,1,43.1-7.8C359.4,344.2,376.6,318.3,398.5,290.9L398.5,290.9z M116.5,320.1c-49.8-21.2-94.3-2.8-101.1,42.2
		c-2.3,15,12.7,32.6,19.7,49c14.2-6.2,33.3-8.6,41.7-19.4C92.8,371.3,102.8,345.9,116.5,320.1z"/>
</g>
</svg>
