<?xml version="1.0" encoding="utf-8"?>
<!-- Generator: Adobe Illustrator 27.0.0, SVG Export Plug-In . SVG Version: 6.00 Build 0)  -->
<svg version="1.1" id="Layer_1" xmlns="http://www.w3.org/2000/svg" xmlns:xlink="http://www.w3.org/1999/xlink" x="0px" y="0px"
	 viewBox="0 0 400 500" style="enable-background:new 0 0 400 500;" xml:space="preserve">
<style type="text/css">
	.st0{fill:#1F8FFF;stroke:#1F8FFF;stroke-miterlimit:10;stroke-dasharray:0,0,0,0,0,0;}
</style>
<g id="Layer_2_00000177451753460592143920000012822608302224727211_">
	<path class="st0" d="M121.55,167.83c-0.66,7.18-0.19,20.3,3.23,29.21c3.49,9.12,9.35,17.87,8.86,27.62
		c-0.32,6.24-3.27,12.07-6.9,17.15c-3.91,5.47-8.67,10.33-14.2,14.37c-11.31,8.56-24.48,14.65-38.33,17.71
		c-5.76,1.27-12.53,1.76-16.8-2.3c-3.77-3.59-4.15-9.4-3.98-14.6c0.63-19.89,5.75-39.85,16.37-56.68s26.94-30.34,46.04-35.94
		c1.25-0.37,2.76-0.56,4.06-0.34c0.71,0.32,1.3,0.91,1.61,1.63S121.61,167.16,121.55,167.83z"/>
	<path class="st0" d="M231.09,166.58c0.89-3.75,3.48-6.93,6.57-9.23s6.68-3.83,10.26-5.27c26.08-10.49,54.79-17.43,82.27-11.51
		c4.36,0.94,8.85,2.31,11.98,5.49c4.56,4.63,5.09,11.89,4.28,18.34c-0.8,6.43-3.15,13.36-8.81,16.5c-1.69,0.94-4.19,1.29-5.26-0.33
		c-1.06-1.61,0.17-3.68,1.21-5.29c3.95-6.08,5.68-13.57,4.79-20.76c-0.3-2.4-1.04-5.02-3.1-6.3c-2.84-1.76-6.79,0.1-8.45,2.99
		c-1.66,2.89-1.66,6.42-1.62,9.75c0.07,5.42,0.15,10.83,0.22,16.25c0.02,1.36,0,2.83-0.85,3.9c-1.42,1.78-4.22,1.39-6.33,0.54
		c-3.82-1.52-7.41-3.98-11.52-4.23c-4.34-0.27-8.55,1.99-12.88,1.59c-4.67-0.42-8.45-3.78-12.31-6.44
		c-12.08-8.33-28.1-10.66-42.06-6.12C236.53,167.42,233.11,168.64,231.09,166.58z"/>
	<path class="st0" d="M325.33,281.62c4.98-10.85,3.82-23.65,0-34.97c-3.82-11.31-10.08-21.62-15.34-32.34
		c-3.19-6.51-6.06-13.24-10.25-19.15c-4.2-5.91-9.97-11.05-16.99-12.85c-2.98-0.76-6.37-0.82-8.87,0.96
		c-3.25,2.31-3.9,6.81-3.99,10.79c-0.24,10.7-0.75,19.1-4.68,29.05c-2.48,6.27-4.83,14.37-6.69,20.85c-1.43,5-1.11,10.43,0.59,15.34
		c1.47,4.24,4.02,8.2,7.7,10.76c4.31,3,9.77,3.84,15.02,3.92s9.75-0.03,14.97,0.48c5.72,0.56,10.58,3.47,15.46,6.5
		c2,1.23,5.7,2.44,8,2.92C322.57,284.35,325.06,282.22,325.33,281.62z"/>
	<path class="st0" d="M147.41,106.41c-0.11-0.76-3.95-3.65-6.62-6.14c-2.05-1.92-3.74-4.17-5.01-6.67l-4.77-9.39
		c-1.67-2.44-5.14-2.79-7.27-0.74l-8.06,8.84c-1.57,1.52-8.86,7.39-11.25,6.83c-2.5-0.58-2.45-1.18-2.02-3.71
		c0.77-4.55,5.78-9.93,9.79-11.26c4.32-1.44,5.55-0.55,9.21-6.84c0.81-1.4,0.22-2.87-1.35-3.25c-4.27-1.03-9.8,0.18-13.42,2.03
		c-8.68,4.42-12.66,9.43-15.63,16.61c-1.64,3.97-0.89,10.04,1.74,13.44c2.34,3.02,5.44,5.35,8.11,8.08
		c6.78,6.94,10.64,16.65,10.48,26.35c-0.05,3.3-0.53,6.77,1.18,9.71c0.98,1.69,2.73,2.87,4.68,2.85c2.27-0.03,5.25-3.29,5.95-4.93
		c5.65-13.18,8.52-20.25,19.84-33.63C144.18,113.18,149.24,109.76,147.41,106.41"/>
	<path class="st0" d="M152.56,207c11.16-8.89,11.49-11.8,23.99-24.3c1.98-1.98,6.25-8.74,7.32-11.32
		c6.12-14.71,14.35-27.28,26.63-35.17c13.15-8.44,28.63-11.05,43.05-5.02c4,1.68,7.84,4,12.14,4.52c2.93,0.36,5.89-0.15,8.79-0.65
		c5.08-0.88,10.16-1.76,15.25-2.63l0.08-0.01c4.14-0.72,7.98-4.9,6.77-8.92c-3.71-12.38-13.88-23.25-25.41-29.59
		c-1.63-0.9-2.78-2.49-3.06-4.34c-0.81-5.4,0.35-11.13,3.55-15.45c0.73-0.99,1.56-1.91,2.12-3s0.82-2.42,0.34-3.55
		c-0.7-1.64-2.76-2.31-4.52-2.05c-1.76,0.26-3.33,1.22-4.91,2.03c-4.13,2.13-8.76,3.41-13.4,3.2c-2.1-0.09-4.48-0.69-5.41-2.57
		c-0.61-1.22-0.41-2.74,0.26-3.92s1.78-2.08,2.96-2.75c4.85-2.78,10.83-2.23,16.38-1.62c0.84,0.09,1.7,0.18,2.53,0
		c0.83-0.19,1.62-0.71,1.91-1.51c0.53-1.47-0.81-2.9-2.02-3.89c-1.83-2.25-4.95-2.56-7.69-2.69c-6.18-0.28-12.91-0.4-17.89,3.27
		c-3.08,2.27-5.13,5.88-5.5,9.68c-0.31,3.23,0.53,6.43,1.1,9.62c0.65,3.65,0.92,7.59-1.19,10.79c-0.95,1.44-2.38,2.54-4.06,2.94
		c-4.33,1.04-6.99-2.73-7.1-6.3c-0.08-2.61,0.94-5.12,2.13-7.44s2.57-4.57,3.3-7.08c0.58-1.97,0.58-4.43-1.03-5.71
		c-0.98-0.77-2.34-0.91-3.56-0.68c-1.23,0.23-2.36,0.77-3.52,1.25c-2.93,1.2-6.05,1.94-9.21,2.19c-1.52,0.12-3.3,0.01-4.2-1.22
		c-0.76-1.04-0.55-2.56,0.2-3.6s1.93-1.69,3.12-2.17c2.73-1.1,5.75-1.5,8.67-1.13c1.72,0.21,3.43,0.69,5.17,0.62
		c2.28-0.09,4.77-1.36,4.69-4.1c-0.03-1.08-0.53-2.12-1.29-2.89c-1.86-1.87-4.51-2.15-7.02-2.12c-2.89,0.03-5.77,0.39-8.58,1.05
		c-3.82,0.9-7.92,2.39-10.37,5.56c-3.07,3.98-2.82,9.52-2.23,14.51c0.6,4.99,1.33,10.36-1.07,14.78c-0.83,2.11-2.7,2.43-4.06,1.82
		c-1.36-0.61-2.29-1.88-3.04-3.16c-2.72-4.59-3.98-9.91-4.61-15.22c-0.62-5.3-0.64-10.66-1.05-15.98c-0.14-1.84-0.48-3.93-2.05-4.91
		c-1.29-0.81-3.02-0.53-4.34,0.23s-2.35,1.92-3.46,2.97c-5.18,4.89-12.13,7.28-19.02,9.28c-1.06,0.31-2.04-0.7-1.68-1.75
		c1.2-3.5,3.75-6.54,6.81-8.68c3.74-2.62,8.19-4.04,12.66-4.95c1.27-0.26,2.6-0.5,3.66-1.24s1.79-2.16,1.12-3.62
		c-1.76-3-5.41-4.52-8.89-4.49s-6.81,1.4-9.87,3.05c-5.89,3.19-11.11,7.52-15.31,12.74c-1.85,2.3-3.52,4.85-4.05,7.75
		c-0.97,5.22,1.84,10.29,4.34,14.98c3.27,6.13,6.17,12.52,7.8,19.27c1.36,5.66,1.8,11.61,1.01,17.73c-0.29,2.28-1.25,4.43-2.65,6.26
		c-7.51,9.79-14.87,19.83-19.47,31.26c-7.59,18.84-6.7,41.5,4.6,58.37c1,1.49,2.37,2.22,3.91,3.14S151.72,207.66,152.56,207z"/>
	<path class="st0" d="M71.08,285.28c-4.96,4.02-9.65,12.47-10.12,18.84c-0.47,6.42,0.96,12.82,2.88,18.95
		c6.53,20.88,20.6,37.96,35.16,53.8c1.25,1.36,4.35,5.32,5.6,6.68c3.9,4.24,6.12,6.89,10.32,9.51c0.98,0.61,2.23-0.22,2.05-1.35
		c-2.41-15.32-0.49-31.03,0.58-46.55c1.14-16.46,1.2-33.63-5.6-48.67c-3.3-7.3-8.62-14.23-16.19-16.87
		c-4.92-1.72-10.41-1.44-15.35,0.23C76.85,281.06,73.73,283.13,71.08,285.28z"/>
	<path class="st0" d="M186.01,189.99c-14.32,16.41-28.64,32.81-42.97,49.22c-8.23,9.43-16.61,19.1-21.26,30.72
		s-4.93,25.77,2.46,35.87c4.92,6.72,12.52,10.86,18.78,16.36c12.89,11.32,19.92,29.01,18.19,46.09c-0.14,1.39-0.97,2.67-2.25,3.23
		c-3.01,1.31-5.24-2.51-6.09-5.52c-1.71-6.1-3.42-12.19-5.12-18.29c-1.1-3.94-2.28-8.04-5.55-10.78c-1.86-1.56-4.33-2.37-6.69-1.8
		c-4.75,1.16-6.12,6.72-6.78,11.39c-1.73,12.17-3.47,24.47-2.27,36.7s5.64,24.57,14.67,33.78c20.63,16.82,40.54,36.5,65.84,44.76
		c5.19,1.7,8.8,2.1,15.41,3.92c1.1,0.3,3.47,0.69,4.54,0.92c6.97,1.51,10.94,0.82,17.97,0.93c7.69,0.12,15.5-0.83,22.6-3.79
		c11.87-4.93,21.14-15.63,24.48-27.58c0.67-2.39,0.33-4.93-0.72-7.18c-2.47-5.29-3.85-11.07-4.37-16.9
		c-0.63-6.99-0.05-14.04,1.09-20.96c1.47-8.92,3.87-17.85,3.03-26.79c0.29-4.1-0.55-8.27-2.41-11.94c-0.78-1.54-1.81-3.06-3.37-3.8
		c-2.57-1.21-5.59,0.1-7.95,1.66c-5.97,3.92-10.71,9.49-14.54,15.52s-6.8,12.55-9.83,19.02c-1.76,3.76-3.57,7.57-6.42,10.63
		c-0.55,0.59-1.27,1.02-2.06,1.15c-2.36,0.41-3.36-1.62-3.63-3.44c-0.83-5.52,2.58-10.7,5.82-15.24
		c5.72-8.01,11.43-16.03,17.15-24.04c4.86-6.81,9.84-13.92,11.32-21.93c0.73-5.37,2.09-10.64,3-15.98s1.36-10.85,0.28-16.16
		c-1.39-6.82-5.56-13.33-12.56-15.54c-1.83-0.58-3.78-0.78-5.68-0.55c-8.32,0.99-11.73,8.56-12.29,15.64
		c-0.42,5.29,0.44,10.6,0.3,15.9c-0.15,5.59-1.65,11.54-6.1,15.04c-0.76,0.6-1.66,1.03-2.62,1.09c-2.65,0.18-3.57-2.15-3.29-4.1
		c0.2-1.34,0.86-2.56,1.43-3.79c3.5-7.46,4.06-15.91,4.58-24.14c0.71-11.37,1.42-22.73,2.01-34.47
		c1.33-14.69,5.88-29.08,13.19-41.74c0.94-1.63,1.56-3.43,1.9-5.28c0.9-4.92,1.71-9.87,1.96-14.86c0.3-6.02-0.24-12.16-2.35-17.8"/>
	<path class="st0" d="M320.73,346.39c-4.47,7.92-8.96,15.88-12.24,24.37c-6.03,15.61-7.75,32.48-9.3,49.16
		c-0.04,0.44-0.63,0.53-0.81,0.13c-0.64-1.39-1.16-2.77-1.59-4.15c-1.08-3.46-1.32-7.13-0.9-10.73c1.21-10.37,2.99-20.54,5.47-30.54
		c1.73-9.1-0.71-19.18-6.69-26.5c-2.38-2.91-5.29-5.42-7.14-8.69c-3.21-5.66-1.84-14.97-1.34-19.37c0.24-2.11,0.6-4.19,1.01-6.27
		c0.92-4.78,1.15-9.71,2.53-14.38c1.2-4.09,3.43-8.08,6.52-10.06c2.06-1.13,4.43-1.61,6.78-1.64c7.99-0.11,15.46,5.04,19.56,11.9
		c4.1,6.86,5.21,15.16,4.69,23.14C326.71,331.26,324.5,339.72,320.73,346.39z"/>
	<path class="st0" d="M186.01,189.99c16.87-11.38,38-15.15,58.31-14.02c3.37,0.19,6.17,0.39,8.94,2.32c2.45,1.7,4.22,4.57,5.68,7.18
		"/>
</g>
</svg>
