<?xml version="1.0" encoding="UTF-8"?>
<svg id="Layer_1" data-name="Layer 1" xmlns="http://www.w3.org/2000/svg" viewBox="0 0 666 543.11">
  <defs>
    <style>
      .cls-1 {
        fill: #fff;
        stroke-width: 0px;
      }
    </style>
  </defs>
  <g id="Z5nQg8.tif">
    <path class="cls-1" d="m519.78,13.1c42.36,40.58,44.54,67.05,18.23,131.87-12.49,30.78-25.04,61.64-39.64,91.45-9.44,19.27-7.85,30.26,9.89,45.6,43.79,37.89,85.83,78.14,125.47,120.34,36.12,38.46,38.74,85.55,23.47,140.75-72.48-70.26-141.39-137.06-210.45-204-85.34,100.86-93.42,104.69-156.55,75.18-8.23,16.33-16.53,32.81-27.69,54.95-13.67-22.83-22.62-40.96-34.57-56.85-11.99-15.94-26.96-29.65-40.48-44.18-32.36,40.89-60.53,80.32-93.15,115.68-11.95,12.95-36.82,25.27-51.42,21.4-14.65-3.87-29.45-26.66-34.44-43.96-20.43-70.75-3.74-134.92,49.22-185.92,16.24-15.64,44.8-31.81,64.09-28.23,39.61,7.34,48.73-16.85,64.75-41.21-78.81,7.99-111.92-9.32-125.77-59.19,24.09-18.18,47.31-33.6,68.02-51.87,28.27-24.95,58.33-43.84,97.5-43.67,34.43.15,60.12,16.13,76.62,45.22,15.66,27.6,12.42,54.9-4.59,82.05-23.29,37.17-44.75,75.48-67.56,114.27,8.48,9.15,15.55,16.77,28.79,31.06,29.56-131.7,100.13-231.55,197.56-312.91,18.41-15.37,45.38-14.42,62.7,2.17Zm-82.14,198.8c12-32.83,27.76-75.97,45.93-125.69-36.73,15.9-63.99,31.04-93.2,39.59-47.56,13.92-84.76,58.61-85.16,103.91,41.02-5.51,82.84-11.13,132.43-17.8Zm-39.1,79c-16.91-7.11-28.07-13.09-39.96-16.59-67.78-19.92-87.81-4.08-81.01,65.67,1.16,11.92,8.56,30.54,16.76,32.81,13.05,3.6,33.86.98,43.09-7.75,22-20.81,39.15-46.72,61.13-74.14Zm-282.03,29.19c-49.82-21.25-94.28-2.77-101.09,42.16-2.27,15.01,12.67,32.61,19.74,49.02,14.23-6.19,33.32-8.62,41.66-19.36,16.02-20.64,25.94-45.99,39.69-71.82Z"/>
  </g>
</svg>